<svg xmlns="http://www.w3.org/2000/svg" fill="none" width="128" height="128" viewBox="0 0 128 128">
  <path fill="#716BF1" d="M0 0h128v128H0z"/>
  <path fill="#fff" d="M50.59 67.276c0-2.952-2.988-5.472-4.536-7.596 3.6-3.6 2.268-6.012-.828-6.012-2.663 0-5.471 1.62-5.471 4.428 0 .792.252 1.548.611 2.268-1.188.936-2.843 2.016-5.04 3.348l1.044 2.232c2.269-1.116 4.177-2.16 5.724-3.168 1.657 1.836 3.529 3.456 3.529 4.752 0 1.296-2.088 1.656-8.424 1.332l-.108 4.5c10.44.108 13.5-2.844 13.5-6.084zm11.981.54h-.288a291.527 291.527 0 01-1.44-13.248l-4.968.36c.54 5.976 1.477 12.204 2.449 18.216h5.975c3.24-5.832 6.768-12.564 9.612-18.396H68.8c-2.016 4.248-4.032 8.712-6.228 13.068zm18.785-.432c-1.115 0-1.907-.684-1.907-2.52 0-2.7 1.547-6.552 3.672-6.552.576 0 1.547.216 2.808.9-.757 2.052-1.332 4.464-1.513 6.768-1.08.936-2.123 1.404-3.06 1.404zm7.345 7.596c1.116-2.232.036-5.112.036-9.144v-.288c2.267-3.672 3.96-7.956 3.96-9.828 0-.864-2.088-1.656-3.204-1.656-.396 0-.864.324-1.332.9a8.205 8.205 0 00-3.276-.684c-6.264 0-10.404 6.192-10.404 12.096 0 3.816 1.907 5.472 4.248 5.472 1.944 0 3.96-1.188 5.76-2.772.18 2.196.54 4.212.035 4.716-.755.756-4.356 1.008-9.936.648l-.467 4.716c8.784.324 13.212-1.44 14.58-4.176z"/>
  <path stroke="#fff" stroke-linecap="round" stroke-linejoin="round" stroke-opacity=".6" stroke-width="6" d="M51 104l14-14 14 14M51 24l14 14 14-14"/>
</svg>
